<svg version="1.2" xmlns="http://www.w3.org/2000/svg" viewBox="1571 985 430 430" width="430" height="430"><style>.a{fill:#2c3e50}.b{fill:#ecf0f1}.c{fill:#141414}.d{fill:#1e536a}</style><path class="a" d="m1080 1802.9h-1080v-565.9h1080z"/><path class="b" d="m1641.8 1233.1q0.5 3.3 1.9 6.1 1.4 2.8 3.5 4.8 2.2 2 5.2 3.1 3 1.2 6.6 1.2 4.7 0 8.4-2.2 3.6-2.1 5.3-5.2h17q-1.5 4.8-4.2 8.7-2.7 3.9-6.6 6.7-4 2.8-9.1 4.3-5 1.5-10.9 1.5-7 0-13-2.5-6-2.5-10.4-6.8-4.4-4.4-6.9-10.3-2.5-5.9-2.5-12.9 0-7.1 2.4-13 2.4-6 6.7-10.3 4.3-4.3 10.3-6.8 5.9-2.5 12.9-2.5 6.6 0 12.3 2 5.7 1.9 10 5.5 4.3 3.6 6.9 8.6 2.7 5 3.3 11.2 0.3 2.6 0.3 4.5-0.1 2-0.2 4.3zm32.7-9.3q-0.4-2.8-1.7-5.2-1.3-2.4-3.4-4.2-2.1-1.7-4.9-2.6-2.8-0.9-6-0.9-3.2 0-5.9 0.9-2.8 1-4.9 2.7-2.1 1.8-3.4 4.1-1.4 2.4-2.1 5.2z"/><path class="b" d="m211.4 1910.1h-23.6v-23.4h23.6z"/><path class="b" d="m2237 2095.9h-1080v-565.9h1080z"/><path class="c" d="m1543.9 1761.6q6.1 2.1 10.3 5.8 4.2 3.7 6.5 9.1 2.3 5.4 2.3 12 0 6.7-2.2 12-2.3 5.4-6.5 9.1-4.3 3.8-10.3 5.9-6 2-13.6 2h-16.5v22.5h-15.7v-80.6h32.2q7.5 0.1 13.5 2.2zm-14.6 41.5q4 0 7.2-1 3.2-1.1 5.4-2.9 2.2-1.9 3.4-4.5 1.1-2.6 1.1-5.8 0-3.4-1.1-6-1.2-2.7-3.4-4.4-2.2-1.7-5.4-2.8-3.2-1-7.2-1h-15.4v28.4z"/><path class="c" d="m1572.8 1759.7q0-1.8 0.8-3.4 0.7-1.7 1.9-2.9 1.3-1.2 3-1.9 1.7-0.7 3.6-0.7 1.9 0 3.6 0.7 1.7 0.7 2.9 1.9 1.3 1.2 2 2.9 0.8 1.6 0.8 3.4 0 3.8-2.7 6.5-2.6 2.6-6.6 2.6-4 0-6.6-2.6-2.7-2.7-2.7-6.5zm1.7 17.5h15.2v62.8h-15.2z"/><path class="c" d="m1605.1 1777.2h15.1v10q3.5-5.1 8.9-8.2 5.4-3 12.4-3 5 0 9.1 1.7 4 1.7 6.9 4.8 2.9 3 4.4 7.3 1.5 4.3 1.5 9.2v41h-15.2v-36.1q0-3.1-0.9-5.5-0.9-2.4-2.6-4.1-1.7-1.7-3.9-2.5-2.3-0.9-5-0.9-3.3 0-6.2 1.5-2.8 1.6-4.8 4-2.1 2.4-3.3 5.5-1.2 3.1-1.3 6.5v31.6h-15.1z"/><path class="c" d="m1740.2 1836.4q0 14.5-8 22-8 7.4-23.6 7.4-7.6 0-13-1.6-5.4-1.6-8.9-4.4-3.5-2.9-5.3-6.7-1.8-3.9-2.1-8.3h15.3q0.6 2.2 1.8 3.8 1.2 1.6 3.1 2.6 1.8 1.1 4.2 1.5 2.3 0.5 5 0.5 8.2 0 12.2-4.1 4.1-4.2 4.1-12.7v-6.7q-3 4.3-7.7 6.7-4.8 2.5-12 2.5-6.6 0-12.2-2.4-5.6-2.4-9.6-6.7-4-4.2-6.3-9.9-2.3-5.8-2.3-12.4 0-6.7 2.3-12.5 2.3-5.7 6.3-9.9 4-4.3 9.6-6.7 5.6-2.4 12.3-2.4 7.1 0 11.9 2.5 4.7 2.5 7.7 6.8v-8.1h15.2zm-49.6-28.6q0 3.5 1.3 6.6 1.2 3 3.4 5.4 2.2 2.3 5.4 3.7 3.3 1.4 7.3 1.4 3.4 0 6.5-1.1 3-1.2 5.2-3.2 2.2-1.9 3.6-4.7 1.4-2.8 1.7-6v-4.6q-0.3-3.4-1.8-6.1-1.5-2.7-3.8-4.6-2.2-1.9-5.1-3-3-1.1-6.3-1.1-4 0-7.3 1.4-3.2 1.4-5.4 3.8-2.2 2.4-3.4 5.5-1.3 3.1-1.3 6.6z"/><path class="c" d="m1754 1795.3q0-9.2 6.7-14.2 6.8-5.1 18.8-5.1 12.1 0 18.8 5.3 6.7 5.2 6.8 14.5h-15.4q-0.1-3.7-2.8-5.7-2.7-2-7.3-2-4.9 0-7.6 1.7-2.7 1.7-2.7 5 0 3.4 2.8 5 2.8 1.6 6.9 2.6 4.1 0.9 9 1.8 4.8 0.9 8.9 2.8 4.1 1.9 6.9 5.3 2.7 3.4 2.7 9.4 0 8.8-6.6 14-6.7 5.3-19.8 5.3-6.6 0-11.8-1.5-5.2-1.4-8.6-4-3.4-2.6-5.2-6.3-1.8-3.6-1.8-8.2h15.4q0.6 4 3.6 6 3 1.9 8.6 1.9 5.4 0 8.1-1.6 2.6-1.7 2.6-4.9 0-3.3-2.7-4.8-2.7-1.5-6.8-2.4-4.2-0.9-9-1.8-4.8-0.8-8.9-2.7-4.1-2-6.8-5.5-2.8-3.6-2.8-9.9z"/><path class="c" d="m1819 1864.2v-87h15.2v8.2q3-4.4 7.7-6.9 4.8-2.5 12-2.5 6.6 0 12.2 2.5 5.6 2.5 9.6 6.9 4 4.3 6.3 10.3 2.3 5.9 2.3 12.9 0 7-2.3 12.9-2.3 5.9-6.2 10.3-4 4.3-9.6 6.8-5.7 2.5-12.3 2.5-7.2 0-12-2.5-4.7-2.5-7.7-6.9v32.5zm15.1-58.5v5.8q0.4 3.1 1.8 5.8 1.4 2.6 3.6 4.6 2.3 2 5.3 3.1 2.9 1.2 6.4 1.2 4.1 0 7.3-1.5 3.2-1.4 5.4-3.8 2.2-2.3 3.4-5.5 1.2-3.2 1.2-6.7 0-3.6-1.2-6.8-1.2-3.3-3.4-5.7-2.2-2.4-5.4-3.8-3.2-1.5-7.3-1.5-3.5 0-6.5 1.2-3 1.1-5.2 3.2-2.2 2-3.6 4.7-1.3 2.6-1.8 5.7z"/><path class="c" d="m1957.3 1840h-15.2v-8.3q-3 4.4-7.7 6.9-4.8 2.5-12 2.5-6.6 0-12.2-2.5-5.6-2.5-9.6-6.8-4-4.4-6.3-10.3-2.3-5.9-2.3-12.9 0-7 2.3-12.9 2.3-6 6.3-10.3 4-4.4 9.6-6.9 5.6-2.5 12.3-2.5 7.1 0 11.9 2.5 4.7 2.5 7.7 6.9v-8.2h15.2zm-15.2-34.2q-0.3-3.1-1.7-5.8-1.4-2.6-3.6-4.7-2.2-2-5.2-3.2-3-1.1-6.5-1.1-4 0-7.2 1.4-3.3 1.5-5.5 3.9-2.2 2.4-3.4 5.6-1.2 3.3-1.2 6.9 0 3.5 1.2 6.7 1.2 3.1 3.4 5.5 2.2 2.3 5.5 3.8 3.2 1.4 7.2 1.4 3.5 0 6.5-1.1 3-1.2 5.2-3.2 2.2-1.9 3.6-4.6 1.4-2.6 1.7-5.7z"/><path class="c" d="m1968.8 1808.6q0-7.1 2.6-13 2.5-6 6.9-10.3 4.5-4.3 10.4-6.8 6-2.5 12.9-2.5 6.2 0 11.6 1.9 5.4 1.9 9.5 5.2 4.2 3.4 7 8.1 2.7 4.7 3.7 10.2h-16.5q-1.5-4.6-5.5-7.5-4-3-9.6-3-3.9 0-7 1.5-3.1 1.4-5.4 3.8-2.3 2.4-3.5 5.7-1.2 3.2-1.2 6.7 0 3.5 1.2 6.7 1.2 3.2 3.5 5.6 2.3 2.4 5.4 3.8 3.1 1.5 7 1.5 5.6 0 9.6-2.9 4-2.9 5.5-7.3h16.5q-1 5.5-3.7 10.1-2.8 4.6-7 7.9-4.2 3.4-9.6 5.2-5.3 1.9-11.5 1.9-6.9 0-12.9-2.5-6-2.5-10.4-6.8-4.4-4.4-6.9-10.3-2.6-5.9-2.6-12.9z"/><path class="c" d="m2056.8 1812.1q0.5 3.3 1.9 6.1 1.4 2.8 3.5 4.8 2.2 2 5.2 3.1 3 1.2 6.6 1.2 4.7 0 8.4-2.2 3.6-2.1 5.3-5.2h17q-1.5 4.8-4.2 8.7-2.7 3.9-6.6 6.7-4 2.8-9.1 4.3-5 1.5-10.9 1.5-7 0-13-2.5-6-2.5-10.4-6.8-4.4-4.4-6.9-10.3-2.5-5.9-2.5-12.9 0-7.1 2.4-13 2.4-6 6.7-10.3 4.3-4.3 10.3-6.8 5.9-2.5 12.9-2.5 6.6 0 12.3 2 5.7 1.9 10 5.5 4.3 3.6 6.9 8.6 2.7 5 3.3 11.2 0.3 2.6 0.3 4.5-0.1 2-0.2 4.3zm32.7-9.3q-0.4-2.8-1.7-5.2-1.3-2.4-3.4-4.2-2.1-1.7-4.9-2.6-2.8-0.9-6-0.9-3.2 0-5.9 0.9-2.8 1-4.9 2.7-2.1 1.8-3.4 4.1-1.4 2.4-2.1 5.2z"/><path class="c" d="m1428.7 1719.8v110.2c0 18.4-14.9 33.4-33.3 33.4h-84.3v-23.4h94.3v-96.8h-94.3v96.8h-23.3v-86.8c0-18.5 14.9-33.4 33.4-33.4z"/><path class="c" d="m1311.1 1840z"/><path class="c" d="m1311.1 1840z"/><path class="c" d="m1311.4 1910.1h-23.6v-23.4h23.6z"/><path class="d" d="m3337 2095.9h-1080v-565.9h1080z"/><path class="b" d="m2643.9 1761.6q6.1 2.1 10.3 5.8 4.2 3.7 6.5 9.1 2.3 5.4 2.3 12 0 6.7-2.2 12-2.3 5.4-6.5 9.1-4.3 3.8-10.3 5.9-6 2-13.6 2h-16.5v22.5h-15.7v-80.6h32.2q7.5 0.1 13.5 2.2zm-14.6 41.5q4 0 7.2-1 3.2-1.1 5.4-2.9 2.2-1.9 3.4-4.5 1.1-2.6 1.1-5.8 0-3.4-1.1-6-1.2-2.7-3.4-4.4-2.2-1.7-5.4-2.8-3.2-1-7.2-1h-15.4v28.4z"/><path class="b" d="m2672.8 1759.7q0-1.8 0.8-3.4 0.7-1.7 1.9-2.9 1.3-1.2 3-1.9 1.7-0.7 3.6-0.7 1.9 0 3.6 0.7 1.7 0.7 2.9 1.9 1.3 1.2 2 2.9 0.8 1.6 0.8 3.4 0 3.8-2.7 6.5-2.6 2.6-6.6 2.6-4 0-6.6-2.6-2.7-2.7-2.7-6.5zm1.7 17.5h15.2v62.8h-15.2z"/><path class="b" d="m2705.1 1777.2h15.1v10q3.5-5.1 8.9-8.2 5.4-3 12.4-3 5 0 9.1 1.7 4 1.7 6.9 4.8 2.9 3 4.4 7.3 1.5 4.3 1.5 9.2v41h-15.2v-36.1q0-3.1-0.9-5.5-0.9-2.4-2.6-4.1-1.7-1.7-3.9-2.5-2.3-0.9-5-0.9-3.3 0-6.2 1.5-2.8 1.6-4.8 4-2.1 2.4-3.3 5.5-1.2 3.1-1.3 6.5v31.6h-15.1z"/><path class="b" d="m2840.2 1836.4q0 14.5-8 22-8 7.4-23.6 7.4-7.6 0-13-1.6-5.4-1.6-8.9-4.4-3.5-2.9-5.3-6.7-1.8-3.9-2.1-8.3h15.3q0.6 2.2 1.8 3.8 1.2 1.6 3.1 2.6 1.8 1.1 4.2 1.5 2.3 0.5 5 0.5 8.2 0 12.2-4.1 4.1-4.2 4.1-12.7v-6.7q-3 4.3-7.7 6.7-4.8 2.5-12 2.5-6.6 0-12.2-2.4-5.6-2.4-9.6-6.7-4-4.2-6.3-9.9-2.3-5.8-2.3-12.4 0-6.7 2.3-12.5 2.3-5.7 6.3-9.9 4-4.3 9.6-6.7 5.6-2.4 12.3-2.4 7.1 0 11.9 2.5 4.7 2.5 7.7 6.8v-8.1h15.2zm-49.6-28.6q0 3.5 1.3 6.6 1.2 3 3.4 5.4 2.2 2.3 5.4 3.7 3.3 1.4 7.3 1.4 3.4 0 6.5-1.1 3-1.2 5.2-3.2 2.2-1.9 3.6-4.7 1.4-2.8 1.7-6v-4.6q-0.3-3.4-1.8-6.1-1.5-2.7-3.8-4.6-2.2-1.9-5.1-3-3-1.1-6.3-1.1-4 0-7.3 1.4-3.2 1.4-5.4 3.8-2.2 2.4-3.4 5.5-1.3 3.1-1.3 6.6z"/><path class="b" d="m2854 1795.3q0-9.2 6.7-14.2 6.8-5.1 18.8-5.1 12.1 0 18.8 5.3 6.7 5.2 6.8 14.5h-15.4q-0.1-3.7-2.8-5.7-2.7-2-7.3-2-4.9 0-7.6 1.7-2.7 1.7-2.7 5 0 3.4 2.8 5 2.8 1.6 6.9 2.6 4.1 0.9 9 1.8 4.8 0.9 8.9 2.8 4.1 1.9 6.9 5.3 2.7 3.4 2.7 9.4 0 8.8-6.6 14-6.7 5.3-19.8 5.3-6.6 0-11.8-1.5-5.2-1.4-8.6-4-3.4-2.6-5.2-6.3-1.8-3.6-1.8-8.2h15.4q0.6 4 3.6 6 3 1.9 8.6 1.9 5.4 0 8.1-1.6 2.6-1.7 2.6-4.9 0-3.3-2.7-4.8-2.7-1.5-6.8-2.4-4.2-0.9-9-1.8-4.8-0.8-8.9-2.7-4.1-2-6.8-5.5-2.8-3.6-2.8-9.9z"/><path class="b" d="m2919 1864.2v-87h15.2v8.2q3-4.4 7.7-6.9 4.8-2.5 12-2.5 6.6 0 12.2 2.5 5.6 2.5 9.6 6.9 4 4.3 6.3 10.3 2.3 5.9 2.3 12.9 0 7-2.3 12.9-2.3 5.9-6.2 10.3-4 4.3-9.6 6.8-5.7 2.5-12.3 2.5-7.2 0-12-2.5-4.7-2.5-7.7-6.9v32.5zm15.1-58.5v5.8q0.4 3.1 1.8 5.8 1.4 2.6 3.6 4.6 2.3 2 5.3 3.1 2.9 1.2 6.4 1.2 4.1 0 7.3-1.5 3.2-1.4 5.4-3.8 2.2-2.3 3.4-5.5 1.2-3.2 1.2-6.7 0-3.6-1.2-6.8-1.2-3.3-3.4-5.7-2.2-2.4-5.4-3.8-3.2-1.5-7.3-1.5-3.5 0-6.5 1.2-3 1.1-5.2 3.2-2.2 2-3.6 4.7-1.3 2.6-1.8 5.7z"/><path class="b" d="m3057.3 1840h-15.2v-8.3q-3 4.4-7.7 6.9-4.8 2.5-12 2.5-6.6 0-12.2-2.5-5.6-2.5-9.6-6.8-4-4.4-6.3-10.3-2.3-5.9-2.3-12.9 0-7 2.3-12.9 2.3-6 6.3-10.3 4-4.4 9.6-6.9 5.6-2.5 12.3-2.5 7.1 0 11.9 2.5 4.7 2.5 7.7 6.9v-8.2h15.2zm-15.2-34.2q-0.3-3.1-1.7-5.8-1.4-2.6-3.6-4.7-2.2-2-5.2-3.2-3-1.1-6.5-1.1-4 0-7.2 1.4-3.3 1.5-5.5 3.9-2.2 2.4-3.4 5.6-1.2 3.3-1.2 6.9 0 3.5 1.2 6.7 1.2 3.1 3.4 5.5 2.2 2.3 5.5 3.8 3.2 1.4 7.2 1.4 3.5 0 6.5-1.1 3-1.2 5.2-3.2 2.2-1.9 3.6-4.6 1.4-2.6 1.7-5.7z"/><path class="b" d="m3068.8 1808.6q0-7.1 2.6-13 2.5-6 6.9-10.3 4.5-4.3 10.4-6.8 6-2.5 12.9-2.5 6.2 0 11.6 1.9 5.4 1.9 9.5 5.2 4.2 3.4 7 8.1 2.7 4.7 3.7 10.2h-16.5q-1.5-4.6-5.5-7.5-4-3-9.6-3-3.9 0-7 1.5-3.1 1.4-5.4 3.8-2.3 2.4-3.5 5.7-1.2 3.2-1.2 6.7 0 3.5 1.2 6.7 1.2 3.2 3.5 5.6 2.3 2.4 5.4 3.8 3.1 1.5 7 1.5 5.6 0 9.6-2.9 4-2.9 5.5-7.3h16.5q-1 5.5-3.7 10.1-2.8 4.6-7 7.9-4.2 3.4-9.6 5.2-5.3 1.9-11.5 1.9-6.9 0-12.9-2.5-6-2.5-10.4-6.8-4.4-4.4-6.9-10.3-2.6-5.9-2.6-12.9z"/><path class="b" d="m3156.8 1812.1q0.5 3.3 1.9 6.1 1.4 2.8 3.5 4.8 2.2 2 5.2 3.1 3 1.2 6.6 1.2 4.7 0 8.4-2.2 3.6-2.1 5.3-5.2h17q-1.5 4.8-4.2 8.7-2.7 3.9-6.6 6.7-4 2.8-9.1 4.3-5 1.5-10.9 1.5-7 0-13-2.5-6-2.5-10.4-6.8-4.4-4.4-6.9-10.3-2.5-5.9-2.5-12.9 0-7.1 2.4-13 2.4-6 6.7-10.3 4.3-4.3 10.3-6.8 5.9-2.5 12.9-2.5 6.6 0 12.3 2 5.7 1.9 10 5.5 4.3 3.6 6.9 8.6 2.7 5 3.3 11.2 0.3 2.6 0.3 4.5-0.1 2-0.2 4.3zm32.7-9.3q-0.4-2.8-1.7-5.2-1.3-2.4-3.4-4.2-2.1-1.7-4.9-2.6-2.8-0.9-6-0.9-3.2 0-5.9 0.9-2.8 1-4.9 2.7-2.1 1.8-3.4 4.1-1.4 2.4-2.1 5.2z"/><path class="b" d="m2528.7 1719.8v110.2c0 18.4-14.9 33.4-33.3 33.4h-84.3v-23.4h94.3v-96.8h-94.3v96.8h-23.3v-86.8c0-18.5 14.9-33.4 33.4-33.4z"/><path class="b" d="m2411.1 1840z"/><path class="b" d="m2411.1 1840z"/><path class="b" d="m2411.4 1910.1h-23.6v-23.4h23.6z"/><path class="b" d="m1137 2682h-1080v-565.9h1080z"/><path class="a" d="m443.9 2347.6q6.1 2.1 10.3 5.9 4.2 3.7 6.5 9.1 2.3 5.4 2.3 12 0 6.6-2.2 12-2.3 5.3-6.5 9.1-4.3 3.8-10.3 5.9-6 2-13.6 2h-16.5v22.5h-15.7v-80.6h32.2q7.5 0 13.5 2.1zm-14.6 41.6q4 0 7.2-1.1 3.2-1 5.4-2.8 2.2-1.9 3.4-4.5 1.1-2.6 1.1-5.8 0-3.4-1.1-6-1.2-2.7-3.4-4.4-2.2-1.8-5.4-2.8-3.2-1-7.2-1h-15.4v28.4z"/><path class="a" d="m472.8 2345.8q0-1.8 0.8-3.5 0.7-1.6 1.9-2.8 1.3-1.2 3-1.9 1.7-0.7 3.6-0.7 1.9 0 3.6 0.7 1.7 0.7 2.9 1.9 1.3 1.2 2 2.8 0.8 1.7 0.8 3.5 0 3.8-2.7 6.5-2.6 2.6-6.6 2.6-4 0-6.6-2.6-2.7-2.7-2.7-6.5zm1.7 17.5h15.2v62.8h-15.2z"/><path class="a" d="m505.1 2363.3h15.1v10q3.5-5.2 8.9-8.2 5.4-3 12.4-3 5 0 9.1 1.7 4 1.7 6.9 4.8 2.9 3 4.4 7.3 1.5 4.3 1.5 9.2v41h-15.2v-36.1q0-3.1-0.9-5.5-0.9-2.4-2.6-4.1-1.7-1.7-3.9-2.5-2.3-0.9-5-0.9-3.3 0-6.2 1.5-2.8 1.5-4.8 3.9-2.1 2.4-3.3 5.6-1.2 3.1-1.3 6.5v31.6h-15.1z"/><path class="a" d="m640.2 2422.5q0 14.5-8 22-8 7.4-23.6 7.4-7.6 0-13-1.6-5.4-1.6-8.9-4.4-3.5-2.9-5.3-6.7-1.8-3.9-2.1-8.3h15.3q0.6 2.1 1.8 3.8 1.2 1.6 3.1 2.6 1.8 1 4.2 1.5 2.3 0.5 5 0.5 8.2 0 12.2-4.1 4.1-4.2 4.1-12.7v-6.8q-3 4.4-7.7 6.8-4.8 2.5-12 2.5-6.6 0-12.2-2.4-5.6-2.4-9.6-6.7-4-4.2-6.3-10-2.3-5.7-2.3-12.3 0-6.7 2.3-12.5 2.3-5.8 6.3-10 4-4.2 9.6-6.6 5.6-2.4 12.3-2.4 7.1 0 11.9 2.5 4.7 2.4 7.7 6.8v-8.1h15.2zm-49.6-28.6q0 3.5 1.3 6.6 1.2 3 3.4 5.4 2.2 2.3 5.4 3.7 3.3 1.4 7.3 1.4 3.4 0 6.5-1.2 3-1.1 5.2-3.1 2.2-2 3.6-4.7 1.4-2.8 1.7-6v-4.6q-0.3-3.4-1.8-6.1-1.5-2.7-3.8-4.6-2.2-1.9-5.1-3-3-1.1-6.3-1.1-4 0-7.3 1.4-3.2 1.4-5.4 3.8-2.2 2.4-3.4 5.5-1.3 3.1-1.3 6.6z"/><path class="a" d="m654 2381.4q0-9.2 6.7-14.2 6.8-5.1 18.8-5.1 12.1 0 18.8 5.2 6.7 5.3 6.8 14.5h-15.4q-0.1-3.6-2.8-5.6-2.7-2.1-7.3-2.1-4.9 0-7.6 1.8-2.7 1.7-2.7 5 0 3.3 2.8 5 2.8 1.6 6.9 2.5 4.1 1 9 1.9 4.8 0.9 8.9 2.8 4.1 1.8 6.9 5.3 2.7 3.4 2.7 9.4 0 8.8-6.6 14-6.7 5.2-19.8 5.2-6.6 0-11.8-1.4-5.2-1.4-8.6-4-3.4-2.6-5.2-6.3-1.8-3.6-1.8-8.2h15.4q0.6 3.9 3.6 5.9 3 2 8.6 2 5.4 0 8.1-1.7 2.6-1.6 2.6-4.8 0-3.3-2.7-4.8-2.7-1.5-6.8-2.4-4.2-1-9-1.8-4.8-0.8-8.9-2.8-4.1-1.9-6.8-5.4-2.8-3.6-2.8-9.9z"/><path class="a" d="m719 2450.2v-86.9h15.2v8.2q3-4.5 7.7-6.9 4.8-2.5 12-2.5 6.6 0 12.2 2.5 5.6 2.4 9.6 6.8 4 4.4 6.3 10.4 2.3 5.9 2.3 12.9 0 7-2.3 12.9-2.3 5.9-6.2 10.2-4 4.4-9.6 6.9-5.7 2.5-12.3 2.5-7.2 0-12-2.5-4.7-2.5-7.7-6.9v32.4zm15.1-58.4v5.8q0.4 3.1 1.8 5.8 1.4 2.6 3.6 4.6 2.3 2 5.3 3.1 2.9 1.2 6.4 1.1 4.1 0 7.3-1.4 3.2-1.4 5.4-3.8 2.2-2.3 3.4-5.5 1.2-3.2 1.2-6.7 0-3.6-1.2-6.8-1.2-3.3-3.4-5.7-2.2-2.4-5.4-3.8-3.2-1.5-7.3-1.5-3.5 0-6.5 1.2-3 1.1-5.2 3.2-2.2 2-3.6 4.6-1.3 2.7-1.8 5.8z"/><path class="a" d="m857.3 2426.1h-15.2v-8.3q-3 4.4-7.7 6.9-4.8 2.5-12 2.5-6.6 0-12.2-2.5-5.6-2.5-9.6-6.9-4-4.3-6.3-10.2-2.3-5.9-2.3-12.9 0-7 2.3-12.9 2.3-6 6.3-10.4 4-4.4 9.6-6.8 5.6-2.5 12.3-2.5 7.1 0 11.9 2.5 4.7 2.4 7.7 6.9v-8.2h15.2zm-15.2-34.2q-0.3-3.2-1.7-5.8-1.4-2.7-3.6-4.7-2.2-2-5.2-3.2-3-1.1-6.5-1.1-4 0-7.2 1.4-3.3 1.5-5.5 3.9-2.2 2.4-3.4 5.6-1.2 3.3-1.2 6.9 0 3.5 1.2 6.6 1.2 3.2 3.4 5.6 2.2 2.3 5.5 3.8 3.2 1.4 7.2 1.4 3.5 0 6.5-1.1 3-1.2 5.2-3.2 2.2-2 3.6-4.6 1.4-2.6 1.7-5.8z"/><path class="a" d="m868.8 2394.7q0-7.1 2.6-13 2.5-6 6.9-10.3 4.5-4.4 10.4-6.8 6-2.5 12.9-2.5 6.2 0 11.6 1.9 5.4 1.8 9.5 5.2 4.2 3.4 7 8.1 2.7 4.7 3.7 10.2h-16.5q-1.5-4.6-5.5-7.5-4-3-9.6-3-3.9 0-7 1.5-3.1 1.4-5.4 3.8-2.3 2.4-3.5 5.7-1.2 3.2-1.2 6.7 0 3.5 1.2 6.7 1.2 3.2 3.5 5.6 2.3 2.4 5.4 3.8 3.1 1.4 7 1.4 5.6 0 9.6-2.8 4-2.9 5.5-7.4h16.5q-1 5.6-3.7 10.2-2.8 4.6-7 7.9-4.2 3.3-9.6 5.2-5.3 1.9-11.5 1.9-6.9 0-12.9-2.5-6-2.5-10.4-6.9-4.4-4.3-6.9-10.2-2.6-5.9-2.6-12.9z"/><path class="a" d="m956.8 2398.2q0.5 3.2 1.9 6.1 1.4 2.8 3.5 4.8 2.2 1.9 5.2 3.1 3 1.1 6.6 1.1 4.7 0 8.4-2.1 3.6-2.1 5.3-5.2h17q-1.5 4.8-4.2 8.7-2.7 3.9-6.6 6.7-4 2.8-9.1 4.3-5 1.5-10.9 1.5-7 0-13-2.5-6-2.5-10.4-6.9-4.4-4.3-6.9-10.2-2.5-5.9-2.5-12.9 0-7.1 2.4-13 2.4-6 6.7-10.3 4.3-4.4 10.3-6.8 5.9-2.5 12.9-2.5 6.6 0 12.3 1.9 5.7 2 10 5.6 4.3 3.6 6.9 8.6 2.7 5 3.3 11.2 0.3 2.5 0.3 4.5-0.1 2-0.2 4.3zm32.7-9.3q-0.4-2.9-1.7-5.3-1.3-2.4-3.4-4.1-2.1-1.8-4.9-2.7-2.8-0.9-6-0.9-3.2 0-5.9 1-2.8 1-4.9 2.7-2.1 1.8-3.4 4.1-1.4 2.3-2.1 5.2z"/><path class="a" d="m328.7 2305.9v110.2c0 18.4-14.9 33.3-33.3 33.3h-84.3v-23.3h94.3v-96.8h-94.3v96.8h-23.3v-86.9c0-18.4 14.9-33.3 33.4-33.3z"/><path class="a" d="m211.1 2426.1z"/><path class="a" d="m211.1 2426.1z"/><path class="a" d="m211.4 2496.2h-23.6v-23.4h23.6z"/><path class="b" d="m2237 2682h-1080v-565.9h1080z"/><path class="d" d="m1543.9 2347.6q6.1 2.1 10.3 5.9 4.2 3.7 6.5 9.1 2.3 5.4 2.3 12 0 6.6-2.2 12-2.3 5.3-6.5 9.1-4.3 3.8-10.3 5.9-6 2-13.6 2h-16.5v22.5h-15.7v-80.6h32.2q7.5 0 13.5 2.1zm-14.6 41.6q4 0 7.2-1.1 3.2-1 5.4-2.8 2.2-1.9 3.4-4.5 1.1-2.6 1.1-5.8 0-3.4-1.1-6-1.2-2.7-3.4-4.4-2.2-1.8-5.4-2.8-3.2-1-7.2-1h-15.4v28.4z"/><path class="d" d="m1572.8 2345.8q0-1.8 0.8-3.5 0.7-1.6 1.9-2.8 1.3-1.2 3-1.9 1.7-0.7 3.6-0.7 1.9 0 3.6 0.7 1.7 0.7 2.9 1.9 1.3 1.2 2 2.8 0.8 1.7 0.8 3.5 0 3.8-2.7 6.5-2.6 2.6-6.6 2.6-4 0-6.6-2.6-2.7-2.7-2.7-6.5zm1.7 17.5h15.2v62.8h-15.2z"/><path class="d" d="m1605.1 2363.3h15.1v10q3.5-5.2 8.9-8.2 5.4-3 12.4-3 5 0 9.1 1.7 4 1.7 6.9 4.8 2.9 3 4.4 7.3 1.5 4.3 1.5 9.2v41h-15.2v-36.1q0-3.1-0.9-5.5-0.9-2.4-2.6-4.1-1.7-1.7-3.9-2.5-2.3-0.9-5-0.9-3.3 0-6.2 1.5-2.8 1.5-4.8 3.9-2.1 2.4-3.3 5.6-1.2 3.1-1.3 6.5v31.6h-15.1z"/><path class="d" d="m1740.2 2422.5q0 14.5-8 22-8 7.4-23.6 7.4-7.6 0-13-1.6-5.4-1.6-8.9-4.4-3.5-2.9-5.3-6.7-1.8-3.9-2.1-8.3h15.3q0.6 2.1 1.8 3.8 1.2 1.6 3.1 2.6 1.8 1 4.2 1.5 2.3 0.5 5 0.5 8.2 0 12.2-4.1 4.1-4.2 4.1-12.7v-6.8q-3 4.4-7.7 6.8-4.8 2.5-12 2.5-6.6 0-12.2-2.4-5.6-2.4-9.6-6.7-4-4.2-6.3-10-2.3-5.7-2.3-12.3 0-6.7 2.3-12.5 2.3-5.8 6.3-10 4-4.2 9.6-6.6 5.6-2.4 12.3-2.4 7.1 0 11.9 2.5 4.7 2.4 7.7 6.8v-8.1h15.2zm-49.6-28.6q0 3.5 1.3 6.6 1.2 3 3.4 5.4 2.2 2.3 5.4 3.7 3.3 1.4 7.3 1.4 3.4 0 6.5-1.2 3-1.1 5.2-3.1 2.2-2 3.6-4.7 1.4-2.8 1.7-6v-4.6q-0.3-3.4-1.8-6.1-1.5-2.7-3.8-4.6-2.2-1.9-5.1-3-3-1.1-6.3-1.1-4 0-7.3 1.4-3.2 1.4-5.4 3.8-2.2 2.4-3.4 5.5-1.3 3.1-1.3 6.6z"/><path class="d" d="m1754 2381.4q0-9.2 6.7-14.2 6.8-5.1 18.8-5.1 12.1 0 18.8 5.2 6.7 5.3 6.8 14.5h-15.4q-0.1-3.6-2.8-5.6-2.7-2.1-7.3-2.1-4.9 0-7.6 1.8-2.7 1.7-2.7 5 0 3.3 2.8 5 2.8 1.6 6.9 2.5 4.1 1 9 1.9 4.8 0.9 8.9 2.8 4.1 1.8 6.9 5.3 2.7 3.4 2.7 9.4 0 8.8-6.6 14-6.7 5.2-19.8 5.2-6.6 0-11.8-1.4-5.2-1.4-8.6-4-3.4-2.6-5.2-6.3-1.8-3.6-1.8-8.2h15.4q0.6 3.9 3.6 5.9 3 2 8.6 2 5.4 0 8.1-1.7 2.6-1.6 2.6-4.8 0-3.3-2.7-4.8-2.7-1.5-6.8-2.4-4.2-1-9-1.8-4.8-0.8-8.9-2.8-4.1-1.9-6.8-5.4-2.8-3.6-2.8-9.9z"/><path class="d" d="m1819 2450.2v-86.9h15.2v8.2q3-4.5 7.7-6.9 4.8-2.5 12-2.5 6.6 0 12.2 2.5 5.6 2.4 9.6 6.8 4 4.4 6.3 10.4 2.3 5.9 2.3 12.9 0 7-2.3 12.9-2.3 5.9-6.2 10.2-4 4.4-9.6 6.9-5.7 2.5-12.3 2.5-7.2 0-12-2.5-4.7-2.5-7.7-6.9v32.4zm15.1-58.4v5.8q0.4 3.1 1.8 5.8 1.4 2.6 3.6 4.6 2.3 2 5.3 3.1 2.9 1.2 6.4 1.1 4.1 0 7.3-1.4 3.2-1.4 5.4-3.8 2.2-2.3 3.4-5.5 1.2-3.2 1.2-6.7 0-3.6-1.2-6.8-1.2-3.3-3.4-5.7-2.2-2.4-5.4-3.8-3.2-1.5-7.3-1.5-3.5 0-6.5 1.2-3 1.1-5.2 3.2-2.2 2-3.6 4.6-1.3 2.7-1.8 5.8z"/><path class="d" d="m1957.3 2426.1h-15.2v-8.3q-3 4.4-7.7 6.9-4.8 2.5-12 2.5-6.6 0-12.2-2.5-5.6-2.5-9.6-6.9-4-4.3-6.3-10.2-2.3-5.9-2.3-12.9 0-7 2.3-12.9 2.3-6 6.3-10.4 4-4.4 9.6-6.8 5.6-2.5 12.3-2.5 7.1 0 11.9 2.5 4.7 2.4 7.7 6.9v-8.2h15.2zm-15.2-34.2q-0.3-3.2-1.7-5.8-1.4-2.7-3.6-4.7-2.2-2-5.2-3.2-3-1.1-6.5-1.1-4 0-7.2 1.4-3.3 1.5-5.5 3.9-2.2 2.4-3.4 5.6-1.2 3.3-1.2 6.9 0 3.5 1.2 6.6 1.2 3.2 3.4 5.6 2.2 2.3 5.5 3.8 3.2 1.4 7.2 1.4 3.5 0 6.5-1.1 3-1.2 5.2-3.2 2.2-2 3.6-4.6 1.4-2.6 1.7-5.8z"/><path class="d" d="m1968.8 2394.7q0-7.1 2.6-13 2.5-6 6.9-10.3 4.5-4.4 10.4-6.8 6-2.5 12.9-2.5 6.2 0 11.6 1.9 5.4 1.8 9.5 5.2 4.2 3.4 7 8.1 2.7 4.7 3.7 10.2h-16.5q-1.5-4.6-5.5-7.5-4-3-9.6-3-3.9 0-7 1.5-3.1 1.4-5.4 3.8-2.3 2.4-3.5 5.7-1.2 3.2-1.2 6.7 0 3.5 1.2 6.7 1.2 3.2 3.5 5.6 2.3 2.4 5.4 3.8 3.1 1.4 7 1.4 5.6 0 9.6-2.8 4-2.9 5.5-7.4h16.5q-1 5.6-3.7 10.2-2.8 4.6-7 7.9-4.2 3.3-9.6 5.2-5.3 1.9-11.5 1.9-6.9 0-12.9-2.5-6-2.5-10.4-6.9-4.4-4.3-6.9-10.2-2.6-5.9-2.6-12.9z"/><path class="d" d="m2056.8 2398.2q0.5 3.2 1.9 6.1 1.4 2.8 3.5 4.8 2.2 1.9 5.2 3.1 3 1.1 6.6 1.1 4.7 0 8.4-2.1 3.6-2.1 5.3-5.2h17q-1.5 4.8-4.2 8.7-2.7 3.9-6.6 6.7-4 2.8-9.1 4.3-5 1.5-10.9 1.5-7 0-13-2.5-6-2.5-10.4-6.9-4.4-4.3-6.9-10.2-2.5-5.9-2.5-12.9 0-7.1 2.4-13 2.4-6 6.7-10.3 4.3-4.4 10.3-6.8 5.9-2.5 12.9-2.5 6.6 0 12.3 1.9 5.7 2 10 5.6 4.3 3.6 6.9 8.6 2.7 5 3.3 11.2 0.3 2.5 0.3 4.5-0.1 2-0.2 4.3zm32.7-9.3q-0.4-2.9-1.7-5.3-1.3-2.4-3.4-4.1-2.1-1.8-4.9-2.7-2.8-0.9-6-0.9-3.2 0-5.9 1-2.8 1-4.9 2.7-2.1 1.8-3.4 4.1-1.4 2.3-2.1 5.2z"/><path class="d" d="m1428.7 2305.9v110.2c0 18.4-14.9 33.3-33.3 33.3h-84.3v-23.3h94.3v-96.8h-94.3v96.8h-23.3v-86.9c0-18.4 14.9-33.3 33.4-33.3z"/><path class="d" d="m1311.1 2426.1z"/><path class="d" d="m1311.1 2426.1z"/><path class="d" d="m1311.4 2496.2h-23.6v-23.4h23.6z"/><path class="c" d="m3524 2971h-1080v-565.9h1080z"/><path class="b" d="m1737.1 1232.1z"/><path class="b" d="m1737.1 1232.1z"/><path fill-rule="evenodd" class="b" d="m1785 1392.4c-105.8 0-191.4-85.6-191.4-191.4 0-105.8 85.6-191.4 191.4-191.4 105.8 0 191.4 85.6 191.4 191.4 0 105.8-85.6 191.4-191.4 191.4z"/><path class="c" d="m1870.7 1090.2v135.3c0 22.6-18.3 41-40.9 41h-103.4v-28.7h115.7v-118.9h-115.7v118.9h-28.6v-106.6c0-22.6 18.3-41 40.9-41z"/><path class="c" d="m1726.7 1295.2v28.6h-28.9v-28.6z"/></svg>